<svg width="24" height="21" viewBox="0 0 24 21" fill="none" xmlns="http://www.w3.org/2000/svg">
<path d="M18.5 8.32132C17.7501 8.09532 17.0881 7.68895 16.59 7.14882C16.041 6.54702 15.3421 6.06307 14.5465 5.73397C13.7509 5.40487 12.8799 5.23935 12 5.25007C10.8164 5.17672 9.64458 5.49616 8.71801 6.14476C7.79143 6.79337 7.17804 7.72355 7 8.75007C7.35067 8.23666 7.87845 7.83383 8.50739 7.59955C9.13633 7.36527 9.834 7.31162 10.5 7.44632C11.2487 7.6789 11.9096 8.08763 12.41 8.62757C12.962 9.22456 13.6623 9.70352 14.4577 10.028C15.2531 10.3525 16.1226 10.5139 17 10.5001C18.1836 10.5734 19.3554 10.254 20.282 9.60538C21.2086 8.95677 21.822 8.02659 22 7.00007C21.6557 7.51962 21.1296 7.92854 20.4994 8.16645C19.8691 8.40436 19.1682 8.45865 18.5 8.32132ZM5.5 12.6788C6.24995 12.9048 6.91192 13.3112 7.41 13.8513C7.95895 14.4531 8.65794 14.9371 9.4535 15.2662C10.2491 15.5953 11.1201 15.7608 12 15.7501C13.1836 15.8234 14.3554 15.504 15.282 14.8554C16.2086 14.2068 16.822 13.2766 17 12.2501C16.6493 12.7635 16.1215 13.1663 15.4926 13.4006C14.8637 13.6349 14.166 13.6885 13.5 13.5538C12.7513 13.3212 12.0904 12.9125 11.59 12.3726C11.0366 11.7771 10.336 11.2992 9.54091 10.9748C8.74587 10.6505 7.8771 10.4882 7 10.5001C5.81637 10.4267 4.64458 10.7462 3.71801 11.3948C2.79143 12.0434 2.17804 12.9736 2 14.0001C2.34431 13.4805 2.87041 13.0716 3.50063 12.8337C4.13086 12.5958 4.83181 12.5415 5.5 12.6788Z" fill="#42DFFF"/>
</svg>
