<svg width="100" height="100" viewBox="0 0 100 100" fill="none" xmlns="http://www.w3.org/2000/svg">
<path d="M55.3499 44.17H55.4199V44.06L55.3499 44.17ZM55.3499 44.17H55.4199V44.06L55.3499 44.17ZM55.3499 44.17H55.4199V44.06L55.3499 44.17ZM55.3499 44.17H55.4199V44.06L55.3499 44.17ZM55.3499 44.17H55.4199V44.06L55.3499 44.17ZM55.3499 44.17H55.4199V44.06L55.3499 44.17ZM55.3499 44.17H55.4199V44.06L55.3499 44.17ZM55.3499 44.17H55.4199V44.06L55.3499 44.17ZM55.3499 44.17H55.4199V44.06L55.3499 44.17ZM55.3499 44.17H55.4199V44.06L55.3499 44.17ZM55.3499 44.17H55.4199V44.06L55.3499 44.17ZM55.3499 44.17H55.4199V44.06L55.3499 44.17ZM55.3499 44.17H55.4199V44.06L55.3499 44.17ZM55.3499 44.17H55.4199V44.06L55.3499 44.17ZM55.3499 44.17H55.4199V44.06L55.3499 44.17ZM55.3499 44.17H55.4199V44.06L55.3499 44.17ZM50.7999 3.77002C41.7672 3.77002 32.9374 6.44852 25.427 11.4668C17.9166 16.4851 12.063 23.6178 8.60632 31.9629C5.14967 40.308 4.24525 49.4907 6.00744 58.3498C7.76963 67.2089 12.1193 75.3465 18.5063 81.7336C24.8934 88.1207 33.031 92.4703 41.8901 94.2325C50.7492 95.9947 59.932 95.0903 68.2771 91.6336C76.6222 88.1769 83.7548 82.3233 88.7731 74.8129C93.7914 67.3025 96.4699 58.4727 96.4699 49.44C96.4567 37.3316 91.6408 25.723 83.0788 17.1611C74.5169 8.59915 62.9083 3.78325 50.7999 3.77002ZM39.3799 70C39.3773 70.2025 39.295 70.3958 39.1509 70.538C39.0068 70.6803 38.8124 70.76 38.6099 70.76H29.8099C29.6083 70.76 29.415 70.6799 29.2725 70.5374C29.13 70.3949 29.0499 70.2016 29.0499 70V40.43C29.0486 40.3294 29.0673 40.2295 29.1049 40.1361C29.1425 40.0427 29.1982 39.9578 29.2689 39.8861C29.3396 39.8145 29.4239 39.7576 29.5167 39.7188C29.6096 39.68 29.7093 39.66 29.8099 39.66H38.6099C38.711 39.66 38.8112 39.6799 38.9046 39.7186C38.998 39.7573 39.0829 39.814 39.1544 39.8855C39.2259 39.957 39.2826 40.0419 39.3213 40.1354C39.36 40.2288 39.3799 40.3289 39.3799 40.43V70ZM33.8999 35.71C32.8062 35.71 31.737 35.3857 30.8276 34.778C29.9182 34.1704 29.2094 33.3067 28.7908 32.2963C28.3723 31.2858 28.2628 30.1739 28.4762 29.1012C28.6895 28.0285 29.2162 27.0431 29.9896 26.2697C30.763 25.4963 31.7483 24.9697 32.8211 24.7563C33.8938 24.5429 35.0057 24.6524 36.0161 25.071C37.0266 25.4895 37.8903 26.1983 38.4979 27.1077C39.1056 28.0171 39.4299 29.0863 39.4299 30.18C39.4312 30.9066 39.2891 31.6263 39.0116 32.2978C38.7342 32.9693 38.3269 33.5795 37.8131 34.0933C37.2994 34.607 36.6892 35.0143 36.0177 35.2918C35.3462 35.5692 34.6265 35.7113 33.8999 35.71ZM76.6199 70C76.6173 70.2025 76.535 70.3958 76.3909 70.538C76.2468 70.6803 76.0524 70.76 75.8499 70.76H67.0499C66.9501 70.76 66.8513 70.7404 66.7591 70.7022C66.6669 70.664 66.5831 70.608 66.5125 70.5374C66.4419 70.4668 66.386 70.3831 66.3478 70.2909C66.3096 70.1987 66.2899 70.0998 66.2899 70V54.11C66.2899 49.93 64.7999 47.11 61.0599 47.11C59.8945 47.1165 58.7596 47.4833 57.8108 48.16C56.862 48.8367 56.1456 49.7903 55.7599 50.89C55.4963 51.7028 55.3811 52.5564 55.4199 53.41V70C55.4199 70.2042 55.3388 70.4001 55.1944 70.5445C55.05 70.6889 54.8541 70.77 54.6499 70.77H45.8499C45.7493 70.77 45.6496 70.75 45.5567 70.7112C45.4639 70.6724 45.3796 70.6155 45.3089 70.5439C45.2382 70.4723 45.1825 70.3873 45.1449 70.2939C45.1073 70.2006 45.0886 70.1007 45.0899 70C45.0899 65.78 45.1999 45.29 45.0899 40.47C45.0886 40.3694 45.1073 40.2695 45.1449 40.1761C45.1825 40.0827 45.2382 39.9978 45.3089 39.9261C45.3796 39.8545 45.4639 39.7976 45.5567 39.7588C45.6496 39.72 45.7493 39.7 45.8499 39.7H54.6299C54.7314 39.6987 54.8321 39.7177 54.9262 39.7559C55.0202 39.7941 55.1056 39.8508 55.1774 39.9226C55.2491 39.9943 55.3058 40.0797 55.344 40.1738C55.3823 40.2678 55.4013 40.3685 55.3999 40.47V44.1C56.3353 42.4763 57.6975 41.1397 59.3388 40.2353C60.98 39.331 62.8376 38.8934 64.7099 38.97C71.4999 38.97 76.5999 43.41 76.5999 52.97L76.6199 70ZM55.4199 44.2V44.09L55.3499 44.2H55.4199ZM55.3499 44.2H55.4199V44.09L55.3499 44.2ZM55.3499 44.2H55.4199V44.09L55.3499 44.2ZM55.3499 44.2H55.4199V44.09L55.3499 44.2ZM55.3499 44.2H55.4199V44.09L55.3499 44.2ZM55.3499 44.2H55.4199V44.09L55.3499 44.2ZM55.3499 44.2H55.4199V44.09L55.3499 44.2ZM55.3499 44.2H55.4199V44.09L55.3499 44.2ZM55.3499 44.2H55.4199V44.09L55.3499 44.2ZM55.3499 44.2H55.4199V44.09L55.3499 44.2ZM55.3499 44.2H55.4199V44.09L55.3499 44.2ZM55.3499 44.2H55.4199V44.09L55.3499 44.2ZM55.3499 44.2H55.4199V44.09L55.3499 44.2ZM55.3499 44.2H55.4199V44.09L55.3499 44.2ZM55.3499 44.2H55.4199V44.09L55.3499 44.2Z" fill="white"/>
</svg>
