<svg width="512" height="512" viewBox="0 0 512 512" fill="none" xmlns="http://www.w3.org/2000/svg">
<path d="M256 10.24C120.269 10.24 10.2402 120.269 10.2402 256C10.2402 391.731 120.269 501.76 256 501.76C391.731 501.76 501.76 391.731 501.76 256C501.76 120.269 391.731 10.24 256 10.24ZM159.514 179.2H352.026C362.24 179.2 356.967 192.307 351.411 195.661C345.856 198.989 268.979 245.504 266.087 247.219C263.194 248.934 259.507 249.779 255.77 249.779C252.173 249.853 248.622 248.969 245.479 247.219L160.128 195.661C154.573 192.307 149.325 179.2 159.514 179.2ZM358.4 320C358.4 325.376 351.949 332.8 347.034 332.8H164.967C160.051 332.8 153.6 325.376 153.6 320V226.637C153.6 224.282 153.549 221.235 158.003 223.821L245.479 275.405C248.566 277.292 252.158 278.186 255.77 277.965C259.507 277.965 262.221 277.683 266.087 275.405L353.997 223.846C358.451 221.235 358.4 224.307 358.4 226.662V320Z" fill="white"/>
</svg>
