<svg width="512" height="512" viewBox="0 0 512 512" fill="none" xmlns="http://www.w3.org/2000/svg">
<g clip-path="url(#clip0_655_12)">
<mask id="mask0_655_12" style="mask-type:luminance" maskUnits="userSpaceOnUse" x="0" y="0" width="512" height="512">
<path d="M512 0H0V512H512V0Z" fill="white"/>
</mask>
<g mask="url(#mask0_655_12)">
<path d="M452 0H60C26.8629 0 0 26.8629 0 60V452C0 485.137 26.8629 512 60 512H452C485.137 512 512 485.137 512 452V60C512 26.8629 485.137 0 452 0Z" fill="white"/>
<path d="M339.392 125H383.861L286.71 236.037L401 387.134H311.512L241.421 295.494L161.222 387.134H116.727L220.639 268.367L111 125H202.76L266.115 208.762L339.392 125ZM323.785 360.517H348.425L189.371 150.219H162.929L323.785 360.517Z" fill="#0D0C21"/>
</g>
</g>
<defs>
<clipPath id="clip0_655_12">
<rect width="512" height="512" rx="256" fill="white"/>
</clipPath>
</defs>
</svg>
